<?xml version="1.0" encoding="utf-8"?>
<!-- Generator: Adobe Illustrator 16.0.0, SVG Export Plug-In . SVG Version: 6.00 Build 0)  -->
<!DOCTYPE svg PUBLIC "-//W3C//DTD SVG 1.1//EN" "http://www.w3.org/Graphics/SVG/1.1/DTD/svg11.dtd">
<svg version="1.1" id="Layer_1" xmlns="http://www.w3.org/2000/svg" xmlns:xlink="http://www.w3.org/1999/xlink" x="0px" y="0px"
	 width="800px" height="800px" viewBox="0 0 800 800" enable-background="new 0 0 800 800" xml:space="preserve">
<circle fill="#E8BC43" cx="400" cy="400" r="400"/>
<polygon fill="#231F20" points="228.497,608.369 122.5,471.555 400,386.998 677.5,471.556 571.507,608.369 "/>
<g>
	<polygon fill="#231F20" points="191.414,218.62 62.5,450.385 400,593.621 737.5,450.384 608.585,218.62 	"/>
	<polygon fill="#969394" points="205.922,272.787 114.25,437.597 354.25,539.454 245.409,406.121 360.41,218.62 	"/>
	<polygon fill="#969394" points="594.577,272.787 686.25,437.597 446.25,539.454 555.091,406.121 446.25,218.62 	"/>
	<polygon fill="#969394" points="249.077,559.888 155.801,455.195 400,390.491 644.199,455.195 550.924,559.888 	"/>
	<polygon fill="#231F20" points="354.266,570.49 326,523.96 400,495.2 474.001,523.96 445.735,570.49 	"/>
	<polygon fill="#231F20" points="183,237 219.746,152.5 309.5,68.62 344.053,223.304 	"/>
</g>
<g>
	<polygon fill="#FFFFFF" stroke="#231F20" stroke-width="11.0494" stroke-miterlimit="10" points="219.746,375.914 245.013,332.934 
		318.786,332.934 344.053,375.914 	"/>
	<polygon fill="#FFFFFF" stroke="#231F20" stroke-width="11.0494" stroke-miterlimit="10" points="455.439,375.914 480.709,332.934 
		554.482,332.934 579.746,375.914 	"/>
</g>
<polygon fill="#969394" points="400,419.78 366.25,294.631 399.896,218.62 433.75,293.214 "/>
<g>
	<polygon fill="#231F20" points="227.334,606.869 572.668,606.869 488.84,696.869 311.156,696.869 	"/>
</g>
<polygon fill="#FFFFFF" points="535.091,593.621 479.438,660.225 454.41,607.25 "/>
<polygon fill="#FFFFFF" points="263.372,593.621 319.024,660.225 344.053,608.369 "/>
<polygon fill="#969394" points="305.333,186 314.5,152.81 297.5,99 238,157.81 219.746,215.5 283.355,142.874 "/>
<polygon fill="#231F20" points="616.492,237 579.746,152.5 489.992,68.62 455.439,223.304 "/>
<polygon fill="#231F20" points="344.053,223.304 305.333,201.5 400,181.5 494.158,201.5 455.439,223.304 "/>
<polygon fill="#969394" points="494.158,186 484.992,152.81 501.992,99 561.492,157.81 579.746,215.5 516.137,142.874 "/>
</svg>
